<svg width="200" height="200" viewBox="0 0 200 200" fill="none" xmlns="http://www.w3.org/2000/svg">
<path d="M99.9995 0.0130209C99.9999 0.011115 100 0.0100912 100 0.0100912C100 0.0100912 109.659 48.4476 130.597 69.3852C151.538 90.3254 199.981 99.9774 200 99.9813C200 99.9813 199.962 99.9895 199.885 100.005H199.999C199.998 155.232 155.227 200 99.9995 200C44.7722 200 0.00139751 155.232 0 100.005C-2.4141e-06 44.7766 44.7713 2.41411e-06 99.9995 0V0.0130209ZM20.1703 105.258C22.7648 145.247 54.7406 177.227 94.7274 179.828C89.8513 164.005 81.5165 142.69 69.4034 130.577C57.2948 118.469 35.9909 110.135 20.1703 105.258ZM179.829 105.258C164.008 110.135 142.705 118.469 130.597 130.577C118.484 142.69 110.149 164.005 105.273 179.828C145.26 177.227 177.235 145.248 179.829 105.258ZM94.7212 20.1716C54.7509 22.7752 22.7864 54.7357 20.1729 94.7036C35.9932 89.8266 57.2954 81.4928 69.4034 69.3852C81.5082 57.2808 89.843 35.9855 94.7212 20.1716Z" fill="url(#paint0_linear_2276_2837)"/>
<defs>
<linearGradient id="paint0_linear_2276_2837" x1="20.721" y1="14.1791" x2="179.19" y2="202.754" gradientUnits="userSpaceOnUse">
<stop stop-color="#B97CE5"/>
<stop offset="1" stop-color="#880FDE"/>
</linearGradient>
</defs>
</svg>
