<svg width="133" height="24" viewBox="0 0 133 24" fill="none" xmlns="http://www.w3.org/2000/svg">
<path d="M126.854 19C125.882 19 125.004 18.782 124.219 18.3458C123.434 17.8972 122.817 17.2742 122.368 16.4767C121.92 15.6667 121.695 14.7321 121.695 13.6729C121.695 12.6262 121.926 11.6978 122.387 10.8879C122.848 10.0779 123.477 9.45485 124.275 9.01871C125.072 8.58257 125.963 8.3645 126.948 8.3645C127.932 8.3645 128.823 8.58257 129.62 9.01871C130.418 9.45485 131.047 10.0779 131.508 10.8879C131.969 11.6978 132.2 12.6262 132.2 13.6729C132.2 14.7197 131.963 15.648 131.49 16.458C131.016 17.2679 130.368 17.8972 129.546 18.3458C128.736 18.782 127.839 19 126.854 19ZM126.854 17.1496C127.402 17.1496 127.913 17.0187 128.387 16.757C128.873 16.4954 129.265 16.1028 129.564 15.5795C129.863 15.0561 130.013 14.4206 130.013 13.6729C130.013 12.9253 129.87 12.296 129.583 11.7851C129.297 11.2617 128.916 10.8692 128.443 10.6075C127.969 10.3458 127.459 10.215 126.91 10.215C126.362 10.215 125.851 10.3458 125.378 10.6075C124.916 10.8692 124.549 11.2617 124.275 11.7851C124.001 12.296 123.864 12.9253 123.864 13.6729C123.864 14.782 124.144 15.6418 124.705 16.2524C125.278 16.8505 125.994 17.1496 126.854 17.1496Z" fill="#360459"/>
<path d="M120.29 13.4299C120.29 13.8162 120.265 14.1651 120.215 14.4767H112.346C112.409 15.2991 112.714 15.9595 113.262 16.458C113.81 16.9564 114.483 17.2056 115.281 17.2056C116.427 17.2056 117.237 16.7259 117.711 15.7664H120.01C119.698 16.7134 119.131 17.4922 118.309 18.1028C117.499 18.701 116.489 19 115.281 19C114.296 19 113.412 18.782 112.627 18.3458C111.854 17.8972 111.243 17.2742 110.795 16.4767C110.359 15.6667 110.141 14.7321 110.141 13.6729C110.141 12.6137 110.352 11.6854 110.776 10.8879C111.212 10.0779 111.817 9.45485 112.589 9.01871C113.374 8.58257 114.271 8.3645 115.281 8.3645C116.253 8.3645 117.119 8.57634 117.879 9.00002C118.639 9.42369 119.231 10.0218 119.655 10.7944C120.078 11.5545 120.29 12.433 120.29 13.4299ZM118.066 12.757C118.053 11.972 117.773 11.3427 117.225 10.8692C116.676 10.3957 115.997 10.1589 115.187 10.1589C114.452 10.1589 113.823 10.3957 113.299 10.8692C112.776 11.3302 112.465 11.9595 112.365 12.757H118.066Z" fill="#360459"/>
<path d="M105.797 9.57915C105.46 8.93118 104.993 8.4452 104.395 8.12121C103.797 7.78476 103.105 7.61654 102.32 7.61654C101.46 7.61654 100.694 7.80968 100.021 8.19598C99.3481 8.58227 98.8185 9.13056 98.4322 9.84084C98.0584 10.5511 97.8715 11.3735 97.8715 12.3081C97.8715 13.2427 98.0584 14.0714 98.4322 14.7941C98.8185 15.5044 99.3481 16.0527 100.021 16.439C100.694 16.8253 101.46 17.0184 102.32 17.0184C103.479 17.0184 104.42 16.6944 105.142 16.0465C105.865 15.3985 106.308 14.52 106.47 13.4109H101.591V11.71H108.75V13.3736C108.613 14.3829 108.251 15.3112 107.666 16.1586C107.093 17.006 106.339 17.6851 105.404 18.196C104.482 18.6944 103.454 18.9437 102.32 18.9437C101.099 18.9437 99.9836 18.6633 98.9743 18.1025C97.9649 17.5293 97.1612 16.738 96.5631 15.7287C95.9774 14.7193 95.6846 13.5792 95.6846 12.3081C95.6846 11.0371 95.9774 9.89691 96.5631 8.88757C97.1612 7.87822 97.9649 7.09317 98.9743 6.53242C99.9961 5.95921 101.111 5.67261 102.32 5.67261C103.703 5.67261 104.931 6.01529 106.002 6.70065C107.086 7.37354 107.871 8.33305 108.357 9.57915H105.797Z" fill="#360459"/>
<path d="M90.1477 19C89.3377 19 88.6087 18.8567 87.9608 18.5701C87.3253 18.2711 86.8206 17.8723 86.4468 17.3739C86.0729 16.863 85.8736 16.296 85.8486 15.6729H88.0542C88.0916 16.1091 88.2972 16.4767 88.671 16.7757C89.0573 17.0623 89.5371 17.2056 90.1103 17.2056C90.7084 17.2056 91.1695 17.0935 91.4934 16.8692C91.8299 16.6324 91.9981 16.3334 91.9981 15.972C91.9981 15.5857 91.8112 15.2991 91.4374 15.1122C91.076 14.9253 90.4966 14.7197 89.6991 14.4954C88.9265 14.2835 88.2972 14.0779 87.8112 13.8785C87.3253 13.6792 86.9016 13.3739 86.5402 12.9626C86.1913 12.5514 86.0169 12.0094 86.0169 11.3365C86.0169 10.7882 86.1788 10.2897 86.5028 9.84114C86.8268 9.38008 87.2879 9.01871 87.886 8.75703C88.4966 8.49534 89.1944 8.3645 89.9794 8.3645C91.1508 8.3645 92.0916 8.66357 92.8019 9.2617C93.5246 9.84737 93.9109 10.6511 93.9607 11.6729H91.8299C91.7925 11.2119 91.6056 10.8443 91.2692 10.5701C90.9327 10.296 90.4779 10.1589 89.9047 10.1589C89.3439 10.1589 88.914 10.2648 88.615 10.4767C88.3159 10.6885 88.1664 10.9689 88.1664 11.3178C88.1664 11.5919 88.2661 11.8225 88.4654 12.0094C88.6648 12.1963 88.9078 12.3458 89.1944 12.458C89.481 12.5577 89.9047 12.6885 90.4654 12.8505C91.2131 13.0499 91.8237 13.2555 92.2972 13.4673C92.7832 13.6667 93.2006 13.9658 93.5495 14.3645C93.8984 14.7633 94.0791 15.2929 94.0916 15.9533C94.0916 16.539 93.9296 17.0623 93.6056 17.5234C93.2816 17.9845 92.8205 18.3458 92.2224 18.6075C91.6368 18.8692 90.9452 19 90.1477 19Z" fill="#360459"/>
<path d="M83.6113 5.84106V18.8317H81.4805V5.84106H83.6113Z" fill="#360459"/>
<path d="M77.0139 10.271V15.9719C77.0139 16.3582 77.1011 16.6386 77.2756 16.8131C77.4625 16.9751 77.774 17.0561 78.2101 17.0561H79.5185V18.8318H77.8363C76.8768 18.8318 76.1416 18.6075 75.6307 18.1589C75.1198 17.7103 74.8644 16.9813 74.8644 15.9719V10.271H73.6494V8.53268H74.8644V5.97192H77.0139V8.53268H79.5185V10.271H77.0139Z" fill="#360459"/>
<path d="M61.1484 13.6355C61.1484 12.6013 61.3603 11.6854 61.7839 10.8879C62.2201 10.0904 62.8057 9.47354 63.5409 9.0374C64.2886 8.5888 65.111 8.3645 66.0082 8.3645C66.8182 8.3645 67.5222 8.5265 68.1203 8.85048C68.7309 9.16201 69.2169 9.55453 69.5783 10.0281V8.53273H71.7278V18.8318H69.5783V17.2991C69.2169 17.7851 68.7247 18.1901 68.1017 18.514C67.4786 18.838 66.7683 19 65.9708 19C65.0861 19 64.2761 18.7757 63.5409 18.3271C62.8057 17.8661 62.2201 17.2306 61.7839 16.4206C61.3603 15.5982 61.1484 14.6698 61.1484 13.6355ZM69.5783 13.6729C69.5783 12.9626 69.4288 12.3458 69.1297 11.8224C68.8431 11.2991 68.463 10.9003 67.9895 10.6262C67.516 10.352 67.0051 10.215 66.4568 10.215C65.9085 10.215 65.3976 10.352 64.9241 10.6262C64.4506 10.8879 64.0643 11.2804 63.7652 11.8038C63.4786 12.3147 63.3353 12.9253 63.3353 13.6355C63.3353 14.3458 63.4786 14.9689 63.7652 15.5047C64.0643 16.0405 64.4506 16.4517 64.9241 16.7383C65.4101 17.0125 65.921 17.1496 66.4568 17.1496C67.0051 17.1496 67.516 17.0125 67.9895 16.7383C68.463 16.4642 68.8431 16.0654 69.1297 15.5421C69.4288 15.0063 69.5783 14.3832 69.5783 13.6729Z" fill="#360459"/>
<path d="M55.0468 8.36449C55.8318 8.36449 56.5296 8.53272 57.1402 8.86916C57.7633 9.20561 58.2493 9.70406 58.5982 10.3645C58.9595 11.0249 59.1402 11.8224 59.1402 12.757V18.8318H57.0281V13.0748C57.0281 12.1527 56.7976 11.4486 56.3365 10.9626C55.8754 10.4642 55.2462 10.215 54.4487 10.215C53.6512 10.215 53.0157 10.4642 52.5421 10.9626C52.0811 11.4486 51.8506 12.1527 51.8506 13.0748V18.8318H49.7197V5H51.8506V9.72898C52.2119 9.29284 52.6667 8.95639 53.215 8.71963C53.7758 8.48287 54.3864 8.36449 55.0468 8.36449Z" fill="#360459"/>
<path d="M47.9625 5.84106L44.112 18.8317H41.7008L38.9719 8.99995L36.0747 18.8317L33.6822 18.8504L30 5.84106H32.2617L34.9532 16.4205L37.8691 5.84106H40.2616L42.9719 16.3644L45.6821 5.84106H47.9625Z" fill="#360459"/>
<path fill-rule="evenodd" clip-rule="evenodd" d="M15.6714 8.32629C13.1589 5.81376 11.9999 0.0012207 11.9999 0.0012207C11.9999 0.0012207 10.8409 5.81376 8.32833 8.32629C5.81493 10.8396 0 11.9978 0 11.9978C0 11.9978 5.81496 13.156 8.32833 15.6694C10.842 18.183 11.9999 23.9988 11.9999 23.9988C11.9999 23.9988 13.1578 18.183 15.6714 15.6694C18.1848 13.156 23.9997 11.9978 23.9997 11.9978C23.9997 11.9978 18.1848 10.8396 15.6714 8.32629Z" fill="url(#paint0_linear_2275_2698)"/>
<path d="M12 2.40039C6.69829 2.40039 2.40059 6.6982 2.40039 12C2.40039 17.302 6.69816 21.6006 12 21.6006C17.3015 21.6005 21.5993 17.3026 21.5996 12.001H24C23.9997 18.6281 18.627 23.9999 12 24C5.3729 24 0.000325657 18.6282 0 12.001C-2.89688e-07 5.37351 5.3727 2.89696e-07 12 0V2.40039Z" fill="url(#paint1_linear_2275_2698)"/>
<defs>
<linearGradient id="paint0_linear_2275_2698" x1="2.48651" y1="1.70254" x2="21.5006" y2="24.331" gradientUnits="userSpaceOnUse">
<stop stop-color="#880FDE"/>
<stop offset="1" stop-color="#4C087C"/>
</linearGradient>
<linearGradient id="paint1_linear_2275_2698" x1="2.48651" y1="1.70148" x2="21.5026" y2="24.3303" gradientUnits="userSpaceOnUse">
<stop stop-color="#880FDE"/>
<stop offset="1" stop-color="#4C087C"/>
</linearGradient>
</defs>
</svg>
